<svg width="24" height="24" viewBox="0 0 24 24" fill="none" xmlns="http://www.w3.org/2000/svg">
<mask id="mask0_70815_15314" style="mask-type:luminance" maskUnits="userSpaceOnUse" x="2" y="1" width="20" height="22">
<path fill-rule="evenodd" clip-rule="evenodd" d="M2.35754 1.64062H21.6424V22.3616H2.35754V1.64062Z" fill="white"/>
</mask>
<g mask="url(#mask0_70815_15314)">
<path fill-rule="evenodd" clip-rule="evenodd" d="M7.55974 17.0806C7.78874 17.0806 8.01774 17.1096 8.24174 17.1696C8.91774 17.3516 9.50474 17.8036 9.85274 18.4106C10.0787 18.7916 10.2037 19.2366 10.2077 19.6906C10.2077 20.3406 10.7297 20.8616 11.3717 20.8616H12.6247C13.2637 20.8616 13.7857 20.3436 13.7887 19.7046C13.7847 18.9986 14.0607 18.3276 14.5657 17.8226C15.0637 17.3246 15.7597 17.0256 16.4557 17.0456C16.9117 17.0566 17.3507 17.1796 17.7377 17.3996C18.2947 17.7186 19.0057 17.5286 19.3277 16.9786L19.9917 15.8716C20.1397 15.6166 20.1827 15.2966 20.1037 15.0016C20.0257 14.7066 19.8297 14.4506 19.5657 14.2996C18.9477 13.9436 18.5067 13.3696 18.3237 12.6816C18.1427 12.0066 18.2417 11.2696 18.5947 10.6626C18.8247 10.2626 19.1617 9.92562 19.5657 9.69362C20.1077 9.37663 20.2977 8.66762 19.9827 8.11562C19.9697 8.09363 19.9577 8.07063 19.9477 8.04663L19.3617 7.03063C19.0427 6.47563 18.3327 6.28463 17.7757 6.60162C17.1737 6.95762 16.4577 7.05962 15.7697 6.87862C15.0827 6.70062 14.5067 6.26562 14.1477 5.65162C13.9177 5.26762 13.7927 4.82063 13.7887 4.36562C13.7977 4.02362 13.6777 3.71662 13.4597 3.49163C13.2427 3.26762 12.9377 3.14062 12.6247 3.14062H11.3717C11.0617 3.14062 10.7717 3.26163 10.5527 3.47962C10.3347 3.69863 10.2157 3.98962 10.2177 4.29962C10.1967 5.76163 9.00174 6.93863 7.55474 6.93863C7.09074 6.93363 6.64374 6.80863 6.25574 6.57662C5.71074 6.26662 4.99874 6.45762 4.67974 7.01262L4.00274 8.12563C3.69274 8.66363 3.88274 9.37462 4.43474 9.69563C5.25374 10.1696 5.76474 11.0536 5.76474 12.0016C5.76474 12.9496 5.25374 13.8326 4.43274 14.3076C3.88374 14.6256 3.69374 15.3326 4.01174 15.8826L4.64274 16.9706C4.79874 17.2516 5.05374 17.4546 5.34874 17.5376C5.64274 17.6196 5.96674 17.5846 6.23674 17.4346C6.63374 17.2016 7.09574 17.0806 7.55974 17.0806ZM12.6247 22.3616H11.3717C9.90274 22.3616 8.70774 21.1676 8.70774 19.6986C8.70574 19.5176 8.65374 19.3296 8.55674 19.1666C8.39974 18.8926 8.14574 18.6966 7.85274 18.6186C7.56174 18.5406 7.24274 18.5836 6.98074 18.7356C6.35274 19.0856 5.61374 19.1706 4.93774 18.9806C4.26274 18.7896 3.67974 18.3256 3.33774 17.7106L2.71274 16.6336C1.98174 15.3656 2.41674 13.7406 3.68274 13.0086C4.04174 12.8016 4.26474 12.4156 4.26474 12.0016C4.26474 11.5876 4.04174 11.2006 3.68274 10.9936C2.41574 10.2576 1.98174 8.62862 2.71174 7.36062L3.38974 6.24762C4.11074 4.99362 5.74074 4.55163 7.01174 5.28163C7.18474 5.38462 7.37274 5.43663 7.56374 5.43863C8.18674 5.43863 8.70774 4.92462 8.71774 4.29262C8.71374 3.59562 8.98874 2.92663 9.48974 2.42163C9.99274 1.91763 10.6607 1.64062 11.3717 1.64062H12.6247C13.3407 1.64062 14.0367 1.93463 14.5357 2.44563C15.0337 2.95963 15.3087 3.66463 15.2877 4.37963C15.2897 4.54063 15.3427 4.72662 15.4387 4.88963C15.5977 5.15963 15.8487 5.34962 16.1467 5.42762C16.4447 5.50163 16.7567 5.46163 17.0217 5.30463C18.3017 4.57363 19.9307 5.01162 20.6617 6.28162L21.2847 7.36062C21.3007 7.38962 21.3147 7.41763 21.3267 7.44663C21.9887 8.69763 21.5467 10.2726 20.3167 10.9916C20.1377 11.0946 19.9927 11.2386 19.8927 11.4126C19.7377 11.6816 19.6947 12.0016 19.7727 12.2956C19.8527 12.5956 20.0437 12.8446 20.3127 12.9986C20.9197 13.3476 21.3727 13.9356 21.5537 14.6146C21.7347 15.2926 21.6357 16.0286 21.2827 16.6356L20.6187 17.7416C19.8877 18.9976 18.2587 19.4326 16.9917 18.7006C16.8227 18.6036 16.6277 18.5506 16.4337 18.5456H16.4277C16.1387 18.5456 15.8417 18.6686 15.6257 18.8836C15.4067 19.1026 15.2867 19.3946 15.2887 19.7046C15.2817 21.1736 14.0867 22.3616 12.6247 22.3616Z" fill="#5856D6"/>
</g>
<path fill-rule="evenodd" clip-rule="evenodd" d="M12.0027 10.1152C10.9627 10.1152 10.1167 10.9622 10.1167 12.0022C10.1167 13.0422 10.9627 13.8872 12.0027 13.8872C13.0427 13.8872 13.8887 13.0422 13.8887 12.0022C13.8887 10.9622 13.0427 10.1152 12.0027 10.1152ZM12.0027 15.3872C10.1357 15.3872 8.6167 13.8692 8.6167 12.0022C8.6167 10.1352 10.1357 8.61523 12.0027 8.61523C13.8697 8.61523 15.3887 10.1352 15.3887 12.0022C15.3887 13.8692 13.8697 15.3872 12.0027 15.3872Z" fill="#5856D6"/>
</svg>
