<svg width="11" height="10" viewBox="0 0 11 10" fill="none" xmlns="http://www.w3.org/2000/svg">
<path d="M4.39551 9.93628C4.75423 9.93628 5.03271 9.78996 5.23096 9.49731L10.3711 1.53931C10.4419 1.43075 10.4915 1.3269 10.5198 1.22778C10.5528 1.12866 10.5693 1.0319 10.5693 0.9375C10.5693 0.696777 10.4891 0.500895 10.3286 0.349854C10.1729 0.194092 9.97225 0.116211 9.72681 0.116211C9.55688 0.116211 9.41528 0.151611 9.302 0.222412C9.18872 0.288493 9.0778 0.401774 8.96924 0.562256L4.36719 7.88306L1.98828 4.82446C1.79948 4.58374 1.56584 4.46338 1.28735 4.46338C1.03719 4.46338 0.831868 4.54362 0.671387 4.7041C0.510905 4.85986 0.430664 5.05811 0.430664 5.29883C0.430664 5.40739 0.449544 5.51359 0.487305 5.61743C0.525065 5.71655 0.588786 5.82039 0.678467 5.92896L3.56006 9.51855C3.78662 9.79704 4.0651 9.93628 4.39551 9.93628Z" fill="white"/>
</svg>
