<svg width="24" height="24" viewBox="0 0 24 24" fill="none" xmlns="http://www.w3.org/2000/svg">
<path d="M22.7342 22.1696H22.373V21.356C22.373 21.1313 22.1908 20.9492 21.9662 20.9492C21.7415 20.9492 21.5594 21.1313 21.5594 21.356V22.1696H18.3052V21.356C18.3052 21.1313 18.123 20.9492 17.8984 20.9492C17.6737 20.9492 17.4916 21.1313 17.4916 21.356V22.1696H14.2374V21.356C14.2374 21.1313 14.0552 20.9492 13.8306 20.9492C13.6059 20.9492 13.4238 21.1313 13.4238 21.356V22.1696H10.1696V21.356C10.1696 21.1313 9.98745 20.9492 9.76279 20.9492C9.53813 20.9492 9.35601 21.1313 9.35601 21.356V22.1696H6.10178V21.356C6.10178 21.1313 5.91965 20.9492 5.695 20.9492C5.47034 20.9492 5.28822 21.1313 5.28822 21.356V22.1696H2.03398V21.356C2.03398 21.1313 1.85186 20.9492 1.6272 20.9492C1.40254 20.9492 1.22042 21.1313 1.22042 21.356V22.1696H0.81364C0.588982 22.1696 0.40686 22.3517 0.40686 22.5763C0.40686 22.801 0.588982 22.9831 0.81364 22.9831H22.7797C22.8859 22.9842 22.9879 22.9419 23.062 22.866C23.1505 22.7819 23.1954 22.662 23.1841 22.5405C23.1491 22.3211 22.9562 22.1621 22.7342 22.1696Z" fill="#FF9500"/>
<path d="M9.76274 18.5098C9.53808 18.5098 9.35596 18.6919 9.35596 18.9165V19.7301C9.35596 19.9548 9.53808 20.1369 9.76274 20.1369C9.98739 20.1369 10.1695 19.9548 10.1695 19.7301V18.9165C10.1695 18.6919 9.98739 18.5098 9.76274 18.5098Z" fill="#FF9500"/>
<path d="M10.1695 16.4732C10.1695 16.2485 9.98739 16.0664 9.76274 16.0664C9.53808 16.0664 9.35596 16.2485 9.35596 16.4732V17.2867C9.35596 17.5114 9.53808 17.6935 9.76274 17.6935C9.98739 17.6935 10.1695 17.5114 10.1695 17.2867V16.4732Z" fill="#FF9500"/>
<path d="M18.3051 14.0318C18.3051 13.8071 18.123 13.625 17.8984 13.625C17.6737 13.625 17.4916 13.8071 17.4916 14.0318V14.8453C17.4916 15.07 17.6737 15.2521 17.8984 15.2521C18.123 15.2521 18.3051 15.07 18.3051 14.8453V14.0318Z" fill="#FF9500"/>
<path d="M17.8984 18.5098C17.6737 18.5098 17.4916 18.6919 17.4916 18.9165V19.7301C17.4916 19.9548 17.6737 20.1369 17.8984 20.1369C18.123 20.1369 18.3051 19.9548 18.3051 19.7301V18.9165C18.3051 18.6919 18.123 18.5098 17.8984 18.5098Z" fill="#FF9500"/>
<path d="M18.3051 16.4732C18.3051 16.2485 18.123 16.0664 17.8984 16.0664C17.6737 16.0664 17.4916 16.2485 17.4916 16.4732V17.2867C17.4916 17.5114 17.6737 17.6935 17.8984 17.6935C18.123 17.6935 18.3051 17.5114 18.3051 17.2867V16.4732Z" fill="#FF9500"/>
<path d="M21.9661 18.5098C21.7414 18.5098 21.5593 18.6919 21.5593 18.9165V19.7301C21.5593 19.9548 21.7414 20.1369 21.9661 20.1369C22.1908 20.1369 22.3729 19.9548 22.3729 19.7301V18.9165C22.3729 18.6919 22.1908 18.5098 21.9661 18.5098Z" fill="#FF9500"/>
<path d="M22.3729 16.4732C22.3729 16.2485 22.1908 16.0664 21.9661 16.0664C21.7414 16.0664 21.5593 16.2485 21.5593 16.4732V17.2867C21.5593 17.5114 21.7414 17.6935 21.9661 17.6935C22.1908 17.6935 22.3729 17.5114 22.3729 17.2867V16.4732Z" fill="#FF9500"/>
<path d="M22.3729 11.5923C22.3729 11.3677 22.1908 11.1855 21.9661 11.1855C21.7414 11.1855 21.5593 11.3677 21.5593 11.5923V12.4059C21.5593 12.6305 21.7414 12.8127 21.9661 12.8127C22.1908 12.8127 22.3729 12.6305 22.3729 12.4059V11.5923Z" fill="#FF9500"/>
<path d="M22.3729 9.15287C22.3729 8.92822 22.1908 8.74609 21.9661 8.74609C21.7414 8.74609 21.5593 8.92822 21.5593 9.15287V9.96643C21.5593 10.1911 21.7414 10.3732 21.9661 10.3732C22.1908 10.3732 22.3729 10.1911 22.3729 9.96643V9.15287Z" fill="#FF9500"/>
<path d="M22.3729 14.0318C22.3729 13.8071 22.1908 13.625 21.9661 13.625C21.7414 13.625 21.5593 13.8071 21.5593 14.0318V14.8453C21.5593 15.07 21.7414 15.2521 21.9661 15.2521C22.1908 15.2521 22.3729 15.07 22.3729 14.8453V14.0318Z" fill="#FF9500"/>
<path d="M1.6271 15.2545C1.86755 15.2528 2.10455 15.1972 2.32066 15.0918L4.37612 17.5614C3.88894 18.2355 3.98859 19.1685 4.60716 19.7245C5.22574 20.2806 6.16406 20.2806 6.78263 19.7245C7.40121 19.1685 7.50086 18.2355 7.01368 17.5614L9.07117 15.0918C9.50859 15.3066 10.0209 15.3066 10.4583 15.0918L12.5137 17.5614C12.0044 18.2674 12.1409 19.2492 12.8236 19.7894C13.5063 20.3296 14.4932 20.2368 15.0632 19.5787C15.6331 18.9206 15.5841 17.9305 14.952 17.332L17.4915 12.7557C17.6241 12.7924 17.7608 12.8119 17.8983 12.8139C18.5087 12.8161 19.0686 12.4753 19.3471 11.932C19.6255 11.3888 19.5753 10.7352 19.2171 10.241L21.2746 7.76979C21.4901 7.87491 21.7263 7.93051 21.9661 7.9325C22.7238 7.93755 23.386 7.4223 23.5675 6.68663C23.7489 5.95097 23.4021 5.18689 22.7289 4.83909C22.0557 4.4913 21.2319 4.65056 20.7369 5.22419C20.2418 5.79781 20.2048 6.63609 20.6473 7.25114L18.5919 9.72233C18.3757 9.6169 18.1387 9.5613 17.8983 9.55962C17.2328 9.55787 16.6337 9.96254 16.3868 10.5806C16.1399 11.1986 16.2953 11.9047 16.7788 12.3619L14.2373 16.9398C13.8709 16.8369 13.4793 16.8742 13.139 17.0444L11.0835 14.5748C11.5707 13.9007 11.471 12.9677 10.8525 12.4116C10.2339 11.8556 9.29557 11.8556 8.67699 12.4116C8.05842 12.9677 7.95877 13.9007 8.44595 14.5748L6.38642 17.0444C5.949 16.8296 5.43673 16.8296 4.99931 17.0444L2.94588 14.5732C3.38084 13.9628 3.34136 13.1339 2.85036 12.5676C2.35935 12.0013 1.54446 11.8447 0.87855 12.1887C0.212637 12.5328 -0.131177 13.288 0.0466103 14.0162C0.224398 14.7443 0.877565 15.2561 1.6271 15.2545Z" fill="#FF9500"/>
<path d="M2.0339 16.4732C2.0339 16.2485 1.85177 16.0664 1.62712 16.0664C1.40246 16.0664 1.22034 16.2485 1.22034 16.4732V17.2867C1.22034 17.5114 1.40246 17.6935 1.62712 17.6935C1.85177 17.6935 2.0339 17.5114 2.0339 17.2867V16.4732Z" fill="#FF9500"/>
<path d="M1.62712 18.5098C1.40246 18.5098 1.22034 18.6919 1.22034 18.9165V19.7301C1.22034 19.9548 1.40246 20.1369 1.62712 20.1369C1.85177 20.1369 2.0339 19.9548 2.0339 19.7301V18.9165C2.0339 18.6919 1.85177 18.5098 1.62712 18.5098Z" fill="#FF9500"/>
<path d="M9.19644 6.48938C9.29345 6.58299 9.33779 6.71858 9.31482 6.85142L8.91536 9.15623C8.88902 9.30852 8.95126 9.46258 9.07599 9.55384C9.20072 9.6451 9.36638 9.65779 9.50356 9.58661L11.6091 8.49237C11.7266 8.4313 11.8665 8.4313 11.9841 8.49237L14.0896 9.58661C14.2268 9.65803 14.3926 9.64545 14.5175 9.55415C14.6424 9.46285 14.7047 9.30864 14.6782 9.15623L14.2779 6.85142C14.2547 6.71832 14.299 6.58235 14.3963 6.48857L16.0804 4.86633C16.1923 4.7585 16.233 4.59634 16.1852 4.44844C16.1375 4.30055 16.0097 4.19279 15.8558 4.17074L13.516 3.83433C13.3838 3.81535 13.2693 3.73263 13.2097 3.61305L12.1594 1.50267C12.0906 1.36461 11.9496 1.27734 11.7954 1.27734C11.6411 1.27734 11.5001 1.36461 11.4313 1.50267L10.3757 3.61386C10.316 3.73303 10.2017 3.81539 10.0698 3.83433L7.7357 4.17033C7.58193 4.19251 7.45422 4.30032 7.40658 4.44819C7.35893 4.59606 7.39967 4.75815 7.51156 4.86593L9.19644 6.48938ZM9.49827 4.74023L10.8179 4.55027L11.428 3.32545C11.5291 3.1245 11.774 3.04354 11.975 3.14464C12.1759 3.24574 12.2569 3.4906 12.1558 3.69155L11.448 5.10674C11.3883 5.22591 11.274 5.30827 11.1421 5.32722L9.61217 5.54728C9.59278 5.55016 9.5732 5.55165 9.55359 5.55176C9.3401 5.55174 9.16295 5.38669 9.14786 5.17373C9.13277 4.96077 9.28488 4.77238 9.49624 4.74227L9.49827 4.74023Z" fill="#FF9500"/>
</svg>
